<?xml version="1.0" encoding="utf-8"?>
<svg version="1.1" id="Layer_1" xmlns="http://www.w3.org/2000/svg" xmlns:xlink="http://www.w3.org/1999/xlink" x="0px" y="0px"
	 viewBox="0 0 360 108" style="enable-background:new 0 0 360 108;" xml:space="preserve">
<style type="text/css">
	.st0{fill:#FFFFFF;}
	.st1{fill:#003E52;}
	.st2{fill:#F4B223;}
</style>
<circle class="st0" cx="53.9" cy="58.9" r="21.3"/>
<path class="st1" d="M109.2,66.9c0,0.2,0,0.5-0.1,0.7c-0.1,0.2-0.2,0.4-0.4,0.5s-0.3,0.2-0.5,0.3c-0.2,0.1-0.4,0.1-0.6,0.1h-1.8
	c-0.4,0-0.7,0-1-0.1c-0.3-0.1-0.5-0.2-0.8-0.4c-0.2-0.2-0.5-0.5-0.7-0.8c-0.2-0.3-0.5-0.8-0.7-1.3l-5.2-9.8
	c-0.3-0.6-0.6-1.2-0.9-1.9c-0.3-0.7-0.6-1.3-0.8-2h0c0,0.8,0.1,1.6,0.1,2.3c0,0.8,0,1.6,0,2.4v11c0,0.1,0,0.2-0.1,0.3
	c-0.1,0.1-0.2,0.2-0.3,0.2c-0.1,0.1-0.3,0.1-0.6,0.1c-0.2,0-0.6,0-1,0c-0.4,0-0.7,0-0.9,0c-0.2,0-0.4-0.1-0.6-0.1
	c-0.1-0.1-0.2-0.1-0.3-0.2c-0.1-0.1-0.1-0.2-0.1-0.3V48.9c0-0.5,0.1-0.9,0.4-1.1c0.3-0.3,0.7-0.4,1.1-0.4h2.3c0.4,0,0.8,0,1,0.1
	c0.3,0.1,0.5,0.2,0.8,0.3c0.2,0.2,0.4,0.4,0.6,0.7c0.2,0.3,0.4,0.6,0.6,1.1l4.1,7.7c0.2,0.5,0.5,0.9,0.7,1.4
	c0.2,0.4,0.5,0.9,0.7,1.3c0.2,0.4,0.4,0.9,0.6,1.3c0.2,0.4,0.4,0.9,0.6,1.3h0c0-0.8-0.1-1.5-0.1-2.4c0-0.8,0-1.6,0-2.4V48
	c0-0.1,0-0.2,0.1-0.3c0.1-0.1,0.2-0.2,0.3-0.2c0.2-0.1,0.4-0.1,0.6-0.1c0.2,0,0.6,0,1,0c0.4,0,0.7,0,0.9,0c0.2,0,0.4,0.1,0.6,0.1
	c0.1,0.1,0.2,0.1,0.3,0.2c0.1,0.1,0.1,0.2,0.1,0.3V66.9z"/>
<path class="st1" d="M123.1,59c0-1.1-0.2-2-0.7-2.7c-0.5-0.7-1.3-1-2.3-1c-0.5,0-1,0.1-1.4,0.3c-0.4,0.2-0.7,0.5-1,0.8
	c-0.3,0.3-0.4,0.7-0.6,1.2c-0.1,0.4-0.2,0.9-0.2,1.4H123.1z M127.1,60.1c0,0.5-0.1,0.9-0.3,1.1c-0.2,0.2-0.5,0.4-0.9,0.4H117
	c0,0.6,0.1,1.2,0.2,1.7c0.1,0.5,0.4,0.9,0.7,1.3c0.3,0.4,0.7,0.6,1.2,0.8c0.5,0.2,1.1,0.3,1.8,0.3c0.7,0,1.3-0.1,1.9-0.2
	c0.5-0.1,1-0.2,1.4-0.3c0.4-0.1,0.7-0.2,1-0.3c0.3-0.1,0.5-0.2,0.6-0.2c0.1,0,0.2,0,0.2,0.1c0.1,0,0.1,0.1,0.2,0.2
	c0,0.1,0.1,0.2,0.1,0.4c0,0.2,0,0.4,0,0.7c0,0.2,0,0.4,0,0.6c0,0.2,0,0.3,0,0.4c0,0.1-0.1,0.2-0.1,0.3c0,0.1-0.1,0.2-0.2,0.2
	c-0.1,0.1-0.3,0.2-0.6,0.3c-0.3,0.1-0.7,0.3-1.2,0.4c-0.5,0.1-1,0.2-1.7,0.3c-0.6,0.1-1.3,0.1-2,0.1c-1.3,0-2.4-0.2-3.4-0.5
	c-1-0.3-1.8-0.8-2.4-1.5c-0.6-0.7-1.1-1.5-1.5-2.5c-0.3-1-0.5-2.2-0.5-3.5c0-1.3,0.2-2.5,0.5-3.5c0.3-1,0.8-1.9,1.5-2.6
	s1.4-1.3,2.3-1.6c0.9-0.4,1.9-0.6,3.1-0.6c1.2,0,2.2,0.2,3.1,0.5c0.9,0.4,1.6,0.9,2.1,1.5c0.6,0.6,1,1.4,1.2,2.3
	c0.3,0.9,0.4,1.8,0.4,2.8V60.1z"/>
<path class="st1" d="M139.9,60.7c0-0.6,0-1.2-0.1-1.8c-0.1-0.6-0.2-1.1-0.5-1.5c-0.2-0.4-0.5-0.8-0.9-1.1c-0.4-0.3-0.8-0.4-1.4-0.4
	c-0.3,0-0.5,0-0.8,0.1c-0.3,0.1-0.5,0.2-0.8,0.4c-0.3,0.2-0.6,0.4-0.9,0.7c-0.3,0.3-0.6,0.7-0.9,1.1V63c0.6,0.7,1.1,1.3,1.6,1.7
	c0.5,0.4,1.1,0.6,1.6,0.6c0.5,0,1-0.1,1.4-0.4c0.4-0.3,0.7-0.6,0.9-1.1c0.2-0.4,0.4-0.9,0.5-1.5C139.9,61.8,139.9,61.2,139.9,60.7
	 M144.2,60.4c0,1.3-0.1,2.5-0.4,3.5c-0.3,1-0.7,1.9-1.2,2.6c-0.5,0.7-1.2,1.3-2,1.7c-0.8,0.4-1.7,0.6-2.7,0.6c-0.4,0-0.8,0-1.2-0.1
	s-0.7-0.2-1-0.4c-0.3-0.2-0.7-0.4-1-0.6c-0.3-0.2-0.7-0.5-1-0.9v6.8c0,0.1,0,0.2-0.1,0.3c-0.1,0.1-0.2,0.2-0.3,0.2
	c-0.2,0.1-0.4,0.1-0.6,0.1c-0.3,0-0.6,0-1,0c-0.4,0-0.7,0-1,0c-0.3,0-0.5-0.1-0.6-0.1c-0.2-0.1-0.3-0.1-0.3-0.2
	c-0.1-0.1-0.1-0.2-0.1-0.3V53.3c0-0.1,0-0.2,0.1-0.3c0.1-0.1,0.1-0.1,0.3-0.2c0.1-0.1,0.3-0.1,0.5-0.1c0.2,0,0.5,0,0.8,0
	c0.3,0,0.6,0,0.8,0c0.2,0,0.4,0.1,0.5,0.1c0.1,0.1,0.2,0.1,0.3,0.2c0.1,0.1,0.1,0.2,0.1,0.3V55c0.4-0.4,0.8-0.8,1.2-1.1
	c0.4-0.3,0.8-0.6,1.2-0.8c0.4-0.2,0.9-0.4,1.3-0.5c0.4-0.1,0.9-0.2,1.4-0.2c1.1,0,2,0.2,2.7,0.6c0.7,0.4,1.4,1,1.8,1.7
	c0.5,0.7,0.8,1.6,1,2.5C144.1,58.2,144.2,59.3,144.2,60.4"/>
<path class="st1" d="M156,66.4c0,0.5,0,0.8-0.1,1.1s-0.1,0.4-0.2,0.5c-0.1,0.1-0.2,0.2-0.4,0.3c-0.2,0.1-0.4,0.2-0.7,0.2
	c-0.3,0.1-0.5,0.1-0.8,0.1c-0.3,0-0.6,0-0.9,0c-0.8,0-1.5-0.1-2.1-0.3c-0.6-0.2-1.1-0.5-1.5-1c-0.4-0.4-0.7-1-0.9-1.6
	c-0.2-0.6-0.3-1.4-0.3-2.3v-7.4h-1.7c-0.2,0-0.4-0.1-0.5-0.4c-0.1-0.3-0.2-0.7-0.2-1.3c0-0.3,0-0.6,0-0.8c0-0.2,0.1-0.4,0.1-0.5
	c0.1-0.1,0.1-0.2,0.2-0.3c0.1-0.1,0.2-0.1,0.3-0.1h1.7v-3.2c0-0.1,0-0.2,0.1-0.3c0.1-0.1,0.2-0.2,0.3-0.2c0.2-0.1,0.4-0.1,0.6-0.1
	c0.3,0,0.6,0,1,0c0.4,0,0.7,0,1,0c0.3,0,0.5,0.1,0.6,0.1c0.2,0.1,0.3,0.1,0.3,0.2c0.1,0.1,0.1,0.2,0.1,0.3v3.2h3.1
	c0.1,0,0.2,0,0.3,0.1c0.1,0.1,0.1,0.1,0.2,0.3c0.1,0.1,0.1,0.3,0.1,0.5c0,0.2,0,0.5,0,0.8c0,0.6-0.1,1-0.2,1.3
	c-0.1,0.3-0.3,0.4-0.5,0.4h-3.2v6.8c0,0.8,0.1,1.4,0.4,1.8c0.2,0.4,0.7,0.6,1.3,0.6c0.2,0,0.4,0,0.6-0.1c0.2,0,0.3-0.1,0.5-0.1
	c0.1,0,0.2-0.1,0.3-0.1c0.1,0,0.2-0.1,0.3-0.1c0.1,0,0.1,0,0.2,0.1s0.1,0.1,0.1,0.2c0,0.1,0.1,0.3,0.1,0.5
	C156,65.8,156,66.1,156,66.4"/>
<path class="st1" d="M172.8,67.8c0,0.1,0,0.2-0.1,0.3c-0.1,0.1-0.1,0.1-0.3,0.2c-0.1,0.1-0.3,0.1-0.5,0.1c-0.2,0-0.5,0-0.8,0
	c-0.4,0-0.6,0-0.9,0c-0.2,0-0.4-0.1-0.5-0.1c-0.1-0.1-0.2-0.1-0.3-0.2c-0.1-0.1-0.1-0.2-0.1-0.3v-1.7c-0.8,0.9-1.6,1.5-2.4,2
	s-1.7,0.6-2.6,0.6c-1,0-1.8-0.2-2.5-0.5c-0.7-0.3-1.2-0.8-1.6-1.3c-0.4-0.6-0.7-1.2-0.9-2c-0.2-0.7-0.3-1.7-0.3-2.8v-8.9
	c0-0.1,0-0.2,0.1-0.3c0.1-0.1,0.2-0.1,0.3-0.2c0.2-0.1,0.4-0.1,0.6-0.1c0.3,0,0.6,0,1,0c0.4,0,0.7,0,1,0c0.3,0,0.5,0.1,0.6,0.1
	c0.2,0.1,0.3,0.1,0.3,0.2c0.1,0.1,0.1,0.2,0.1,0.3v8.2c0,0.8,0,1.3,0.1,1.7c0.1,0.4,0.2,0.7,0.4,1c0.2,0.3,0.5,0.5,0.8,0.7
	c0.3,0.2,0.7,0.2,1.1,0.2c0.5,0,1-0.2,1.6-0.6c0.5-0.4,1.1-0.9,1.7-1.7v-9.6c0-0.1,0-0.2,0.1-0.3c0.1-0.1,0.2-0.1,0.3-0.2
	c0.2-0.1,0.4-0.1,0.6-0.1c0.3,0,0.6,0,1,0c0.4,0,0.7,0,1,0c0.3,0,0.5,0.1,0.6,0.1c0.2,0.1,0.3,0.1,0.3,0.2c0.1,0.1,0.1,0.2,0.1,0.3
	V67.8z"/>
<path class="st1" d="M190.9,67.8c0,0.1,0,0.2-0.1,0.3c-0.1,0.1-0.2,0.1-0.3,0.2c-0.2,0.1-0.4,0.1-0.6,0.1c-0.3,0-0.6,0-1,0
	c-0.4,0-0.7,0-1,0c-0.3,0-0.5-0.1-0.6-0.1c-0.2-0.1-0.3-0.1-0.3-0.2c-0.1-0.1-0.1-0.2-0.1-0.3v-8.3c0-0.7-0.1-1.3-0.2-1.7
	c-0.1-0.4-0.3-0.7-0.4-1c-0.2-0.3-0.4-0.5-0.8-0.7c-0.3-0.2-0.7-0.2-1.1-0.2c-0.5,0-1,0.2-1.6,0.6c-0.5,0.4-1.1,0.9-1.7,1.7v9.6
	c0,0.1,0,0.2-0.1,0.3c-0.1,0.1-0.2,0.1-0.3,0.2c-0.2,0.1-0.4,0.1-0.6,0.1c-0.3,0-0.6,0-1,0c-0.4,0-0.7,0-1,0c-0.3,0-0.5-0.1-0.6-0.1
	c-0.2-0.1-0.3-0.1-0.3-0.2c-0.1-0.1-0.1-0.2-0.1-0.3V53.3c0-0.1,0-0.2,0.1-0.3c0.1-0.1,0.2-0.1,0.3-0.2c0.1-0.1,0.3-0.1,0.5-0.1
	c0.2,0,0.5,0,0.8,0c0.3,0,0.6,0,0.9,0c0.2,0,0.4,0.1,0.5,0.1c0.1,0.1,0.2,0.1,0.3,0.2c0.1,0.1,0.1,0.2,0.1,0.3V55
	c0.8-0.9,1.6-1.5,2.4-1.9c0.8-0.4,1.7-0.6,2.6-0.6c1,0,1.8,0.2,2.5,0.5c0.7,0.3,1.2,0.8,1.6,1.3c0.4,0.6,0.7,1.2,0.9,2
	c0.2,0.7,0.3,1.6,0.3,2.7V67.8z"/>
<path class="st1" d="M204.4,59c0-1.1-0.2-2-0.7-2.7c-0.5-0.7-1.3-1-2.3-1c-0.5,0-1,0.1-1.4,0.3c-0.4,0.2-0.7,0.5-1,0.8
	c-0.3,0.3-0.4,0.7-0.6,1.2c-0.1,0.4-0.2,0.9-0.2,1.4H204.4z M208.4,60.1c0,0.5-0.1,0.9-0.3,1.1c-0.2,0.2-0.5,0.4-0.9,0.4h-8.8
	c0,0.6,0.1,1.2,0.2,1.7c0.1,0.5,0.4,0.9,0.7,1.3c0.3,0.4,0.7,0.6,1.2,0.8c0.5,0.2,1.1,0.3,1.8,0.3c0.7,0,1.3-0.1,1.9-0.2
	c0.5-0.1,1-0.2,1.4-0.3c0.4-0.1,0.7-0.2,1-0.3c0.3-0.1,0.5-0.2,0.6-0.2c0.1,0,0.2,0,0.2,0.1c0.1,0,0.1,0.1,0.2,0.2
	c0,0.1,0.1,0.2,0.1,0.4c0,0.2,0,0.4,0,0.7c0,0.2,0,0.4,0,0.6c0,0.2,0,0.3,0,0.4c0,0.1-0.1,0.2-0.1,0.3c0,0.1-0.1,0.2-0.2,0.2
	c-0.1,0.1-0.3,0.2-0.6,0.3c-0.3,0.1-0.7,0.3-1.2,0.4c-0.5,0.1-1,0.2-1.7,0.3c-0.6,0.1-1.3,0.1-2,0.1c-1.3,0-2.4-0.2-3.4-0.5
	c-1-0.3-1.8-0.8-2.4-1.5c-0.6-0.7-1.1-1.5-1.5-2.5c-0.3-1-0.5-2.2-0.5-3.5c0-1.3,0.2-2.5,0.5-3.5c0.3-1,0.8-1.9,1.5-2.6
	c0.6-0.7,1.4-1.3,2.3-1.6c0.9-0.4,1.9-0.6,3.1-0.6c1.2,0,2.2,0.2,3.1,0.5c0.9,0.4,1.6,0.9,2.1,1.5s1,1.4,1.2,2.3
	c0.3,0.9,0.4,1.8,0.4,2.8V60.1z"/>
<path class="st1" d="M232.2,62.1c0,1.1-0.2,2.1-0.6,2.9c-0.4,0.8-1,1.5-1.7,2.1c-0.7,0.6-1.5,1-2.5,1.3c-0.9,0.3-1.9,0.4-3,0.4
	c-0.7,0-1.4-0.1-2-0.2c-0.6-0.1-1.2-0.3-1.6-0.4c-0.5-0.2-0.9-0.3-1.2-0.5c-0.3-0.2-0.5-0.3-0.7-0.5c-0.1-0.1-0.2-0.3-0.3-0.6
	c-0.1-0.3-0.1-0.6-0.1-1.1c0-0.3,0-0.6,0-0.8c0-0.2,0.1-0.4,0.1-0.6c0-0.1,0.1-0.2,0.2-0.3c0.1-0.1,0.2-0.1,0.3-0.1
	c0.2,0,0.4,0.1,0.6,0.3c0.3,0.2,0.6,0.4,1.1,0.6c0.4,0.2,0.9,0.4,1.5,0.6c0.6,0.2,1.3,0.3,2.1,0.3c0.5,0,1-0.1,1.4-0.2
	c0.4-0.1,0.8-0.3,1-0.5c0.3-0.2,0.5-0.5,0.7-0.8c0.2-0.3,0.2-0.7,0.2-1.1c0-0.5-0.1-0.9-0.4-1.2c-0.3-0.3-0.6-0.6-1-0.9
	c-0.4-0.3-0.9-0.5-1.4-0.7c-0.5-0.2-1.1-0.5-1.6-0.7s-1.1-0.6-1.6-0.9c-0.5-0.3-1-0.7-1.4-1.2c-0.4-0.5-0.8-1-1-1.6
	c-0.3-0.6-0.4-1.4-0.4-2.3c0-1,0.2-1.9,0.6-2.7c0.4-0.8,0.9-1.4,1.5-1.9c0.6-0.5,1.4-0.9,2.2-1.1c0.9-0.2,1.8-0.4,2.7-0.4
	c0.5,0,1,0,1.5,0.1c0.5,0.1,1,0.2,1.4,0.3c0.4,0.1,0.8,0.3,1.2,0.4c0.3,0.2,0.6,0.3,0.7,0.4c0.1,0.1,0.2,0.2,0.2,0.3
	c0,0.1,0.1,0.2,0.1,0.3c0,0.1,0,0.3,0.1,0.5c0,0.2,0,0.4,0,0.7c0,0.3,0,0.6,0,0.8c0,0.2,0,0.4-0.1,0.5c0,0.1-0.1,0.2-0.2,0.3
	c-0.1,0.1-0.2,0.1-0.3,0.1c-0.1,0-0.3-0.1-0.6-0.2c-0.3-0.2-0.6-0.3-1-0.5c-0.4-0.2-0.8-0.3-1.3-0.5c-0.5-0.1-1-0.2-1.6-0.2
	c-0.5,0-0.9,0.1-1.2,0.2c-0.3,0.1-0.6,0.3-0.9,0.5c-0.2,0.2-0.4,0.4-0.5,0.7c-0.1,0.3-0.2,0.6-0.2,0.9c0,0.5,0.1,0.9,0.4,1.2
	c0.3,0.3,0.6,0.6,1,0.9c0.4,0.3,0.9,0.5,1.5,0.7c0.5,0.2,1.1,0.5,1.7,0.7c0.6,0.3,1.1,0.6,1.7,0.9c0.5,0.3,1,0.7,1.4,1.2
	c0.4,0.5,0.8,1,1,1.6C232.1,60.5,232.2,61.2,232.2,62.1"/>
<path class="st1" d="M245.8,60.6c0-0.7-0.1-1.4-0.2-2c-0.1-0.6-0.3-1.1-0.6-1.6c-0.3-0.4-0.6-0.8-1.1-1c-0.4-0.2-1-0.4-1.7-0.4
	c-0.6,0-1.1,0.1-1.6,0.3c-0.5,0.2-0.8,0.5-1.1,1c-0.3,0.4-0.5,0.9-0.7,1.5c-0.1,0.6-0.2,1.3-0.2,2.1c0,0.7,0.1,1.4,0.2,2
	c0.1,0.6,0.3,1.1,0.6,1.6c0.3,0.4,0.6,0.8,1.1,1c0.5,0.2,1,0.4,1.7,0.4c0.6,0,1.2-0.1,1.6-0.3c0.5-0.2,0.8-0.5,1.1-1
	c0.3-0.4,0.5-0.9,0.6-1.5C245.7,62,245.8,61.4,245.8,60.6 M250,60.4c0,1.2-0.2,2.4-0.5,3.4c-0.3,1-0.8,1.9-1.5,2.6
	c-0.7,0.7-1.5,1.3-2.5,1.7c-1,0.4-2.2,0.6-3.5,0.6c-1.3,0-2.4-0.2-3.4-0.5c-1-0.4-1.7-0.9-2.4-1.6c-0.6-0.7-1.1-1.5-1.4-2.5
	c-0.3-1-0.5-2.1-0.5-3.4c0-1.2,0.2-2.4,0.5-3.4c0.3-1,0.8-1.9,1.5-2.6c0.7-0.7,1.5-1.3,2.5-1.7c1-0.4,2.1-0.6,3.5-0.6
	c1.3,0,2.4,0.2,3.4,0.5c1,0.4,1.7,0.9,2.4,1.6c0.6,0.7,1.1,1.5,1.4,2.5C249.9,58,250,59.1,250,60.4"/>
<path class="st1" d="M262.1,47.8c0,0.3,0,0.6,0,0.8c0,0.2-0.1,0.3-0.1,0.4c0,0.1-0.1,0.2-0.1,0.2c-0.1,0-0.1,0.1-0.2,0.1
	c-0.1,0-0.2,0-0.3-0.1c-0.1,0-0.2-0.1-0.3-0.1c-0.1,0-0.3-0.1-0.5-0.1c-0.2,0-0.4-0.1-0.6-0.1c-0.3,0-0.5,0-0.8,0.1
	c-0.2,0.1-0.4,0.2-0.5,0.4c-0.1,0.2-0.2,0.5-0.3,0.8c-0.1,0.3-0.1,0.7-0.1,1.2v1.3h2.6c0.1,0,0.2,0,0.3,0.1c0.1,0.1,0.1,0.1,0.2,0.3
	c0.1,0.1,0.1,0.3,0.1,0.5c0,0.2,0,0.5,0,0.8c0,0.6-0.1,1-0.2,1.3c-0.1,0.3-0.3,0.4-0.5,0.4h-2.6v11.7c0,0.1,0,0.2-0.1,0.3
	c-0.1,0.1-0.2,0.1-0.3,0.2c-0.2,0.1-0.4,0.1-0.6,0.1c-0.3,0-0.6,0-1,0c-0.4,0-0.7,0-1,0s-0.5-0.1-0.6-0.1c-0.2-0.1-0.3-0.1-0.3-0.2
	c-0.1-0.1-0.1-0.2-0.1-0.3V56.1h-1.8c-0.2,0-0.4-0.1-0.5-0.4c-0.1-0.3-0.2-0.7-0.2-1.3c0-0.3,0-0.6,0-0.8c0-0.2,0.1-0.4,0.1-0.5
	c0-0.1,0.1-0.2,0.2-0.3c0.1-0.1,0.2-0.1,0.3-0.1h1.8v-1.2c0-1,0.1-1.8,0.3-2.6c0.2-0.7,0.5-1.4,0.9-1.9c0.4-0.5,0.9-0.9,1.6-1.1
	s1.4-0.4,2.3-0.4c0.4,0,0.8,0,1.2,0.1c0.4,0.1,0.7,0.1,0.9,0.2c0.2,0.1,0.4,0.2,0.4,0.2c0.1,0.1,0.1,0.2,0.2,0.3
	c0,0.1,0.1,0.3,0.1,0.5C262.1,47.2,262.1,47.5,262.1,47.8"/>
<path class="st1" d="M273.4,66.4c0,0.5,0,0.8-0.1,1.1c-0.1,0.3-0.1,0.4-0.2,0.5c-0.1,0.1-0.2,0.2-0.4,0.3c-0.2,0.1-0.4,0.2-0.7,0.2
	c-0.3,0.1-0.5,0.1-0.8,0.1c-0.3,0-0.6,0-0.9,0c-0.8,0-1.5-0.1-2.1-0.3c-0.6-0.2-1.1-0.5-1.5-1c-0.4-0.4-0.7-1-0.9-1.6
	c-0.2-0.6-0.3-1.4-0.3-2.3v-7.4h-1.7c-0.2,0-0.4-0.1-0.5-0.4c-0.1-0.3-0.2-0.7-0.2-1.3c0-0.3,0-0.6,0-0.8c0-0.2,0.1-0.4,0.1-0.5
	c0.1-0.1,0.1-0.2,0.2-0.3c0.1-0.1,0.2-0.1,0.3-0.1h1.7v-3.2c0-0.1,0-0.2,0.1-0.3c0.1-0.1,0.2-0.2,0.3-0.2c0.2-0.1,0.4-0.1,0.6-0.1
	c0.3,0,0.6,0,1,0c0.4,0,0.7,0,1,0c0.3,0,0.5,0.1,0.6,0.1c0.2,0.1,0.3,0.1,0.3,0.2c0.1,0.1,0.1,0.2,0.1,0.3v3.2h3.1
	c0.1,0,0.2,0,0.3,0.1c0.1,0.1,0.1,0.1,0.2,0.3c0.1,0.1,0.1,0.3,0.1,0.5c0,0.2,0,0.5,0,0.8c0,0.6-0.1,1-0.2,1.3
	c-0.1,0.3-0.3,0.4-0.5,0.4h-3.2v6.8c0,0.8,0.1,1.4,0.4,1.8c0.2,0.4,0.7,0.6,1.3,0.6c0.2,0,0.4,0,0.6-0.1c0.2,0,0.3-0.1,0.5-0.1
	c0.1,0,0.2-0.1,0.3-0.1c0.1,0,0.2-0.1,0.3-0.1c0.1,0,0.1,0,0.2,0.1c0.1,0,0.1,0.1,0.1,0.2c0,0.1,0.1,0.3,0.1,0.5
	C273.4,65.8,273.4,66.1,273.4,66.4"/>
<path class="st1" d="M298.6,53.3c0,0.1,0,0.3,0,0.4c0,0.2-0.1,0.4-0.2,0.7l-3.9,13.1c-0.1,0.2-0.1,0.3-0.2,0.4
	c-0.1,0.1-0.2,0.2-0.4,0.3c-0.2,0.1-0.4,0.1-0.8,0.1c-0.3,0-0.8,0-1.3,0c-0.5,0-1,0-1.3,0c-0.3,0-0.6-0.1-0.8-0.1
	c-0.2-0.1-0.3-0.2-0.4-0.3c-0.1-0.1-0.2-0.3-0.2-0.4l-2.4-8.8l0-0.1l0,0.1l-2.2,8.8c0,0.2-0.1,0.3-0.2,0.4c-0.1,0.1-0.2,0.2-0.4,0.3
	c-0.2,0.1-0.5,0.1-0.8,0.1c-0.3,0-0.8,0-1.3,0c-0.5,0-1,0-1.3,0c-0.3,0-0.6-0.1-0.8-0.1c-0.2-0.1-0.3-0.2-0.4-0.3
	c-0.1-0.1-0.2-0.3-0.2-0.4l-3.8-13.1c-0.1-0.3-0.2-0.6-0.2-0.7c0-0.2,0-0.3,0-0.4c0-0.1,0-0.2,0.1-0.3c0.1-0.1,0.2-0.1,0.3-0.2
	c0.2,0,0.4-0.1,0.6-0.1c0.3,0,0.6,0,1,0c0.4,0,0.8,0,1.1,0c0.3,0,0.5,0.1,0.6,0.1c0.2,0.1,0.3,0.1,0.3,0.2c0.1,0.1,0.1,0.2,0.1,0.3
	l2.9,10.6l0,0.2l0-0.2l2.7-10.6c0-0.1,0.1-0.2,0.2-0.3c0.1-0.1,0.2-0.2,0.3-0.2c0.1-0.1,0.3-0.1,0.6-0.1c0.3,0,0.6,0,1,0
	c0.4,0,0.7,0,1,0c0.2,0,0.4,0.1,0.6,0.1c0.1,0,0.2,0.1,0.3,0.2c0.1,0.1,0.1,0.2,0.1,0.3l2.9,10.7l0,0.2l0-0.2l2.8-10.6
	c0-0.1,0.1-0.2,0.1-0.3c0.1-0.1,0.2-0.2,0.3-0.2c0.2-0.1,0.4-0.1,0.6-0.1c0.3,0,0.6,0,1,0s0.7,0,1,0c0.3,0,0.5,0.1,0.6,0.1
	c0.1,0,0.2,0.1,0.3,0.2C298.6,53.1,298.6,53.2,298.6,53.3"/>
<path class="st1" d="M308.4,61.7h-1.6c-0.7,0-1.2,0-1.7,0.1c-0.5,0.1-0.8,0.2-1.1,0.4c-0.3,0.2-0.5,0.4-0.6,0.7
	c-0.1,0.3-0.2,0.6-0.2,1c0,0.6,0.2,1.1,0.6,1.4c0.4,0.3,0.9,0.5,1.6,0.5c0.6,0,1.1-0.1,1.6-0.4c0.5-0.3,1-0.7,1.5-1.3V61.7z
	 M312.4,67.9c0,0.2-0.1,0.3-0.2,0.4c-0.1,0.1-0.3,0.1-0.5,0.2c-0.2,0-0.6,0.1-1,0.1c-0.5,0-0.8,0-1.1-0.1c-0.2,0-0.4-0.1-0.5-0.2
	c-0.1-0.1-0.1-0.2-0.1-0.4v-1.2c-0.6,0.6-1.3,1.1-2,1.5c-0.8,0.4-1.6,0.5-2.5,0.5c-0.8,0-1.5-0.1-2.1-0.3c-0.6-0.2-1.2-0.5-1.7-0.9
	c-0.5-0.4-0.8-0.9-1.1-1.5c-0.3-0.6-0.4-1.3-0.4-2c0-0.8,0.2-1.6,0.5-2.2c0.3-0.6,0.8-1.1,1.5-1.5s1.5-0.7,2.4-0.9
	c1-0.2,2.1-0.3,3.4-0.3h1.4v-0.9c0-0.5,0-0.9-0.1-1.2c-0.1-0.3-0.2-0.6-0.5-0.9c-0.2-0.2-0.5-0.4-0.8-0.5c-0.4-0.1-0.8-0.2-1.3-0.2
	c-0.7,0-1.3,0.1-1.8,0.2c-0.5,0.2-1,0.3-1.4,0.5c-0.4,0.2-0.8,0.4-1,0.5c-0.3,0.2-0.5,0.2-0.7,0.2c-0.1,0-0.2,0-0.3-0.1
	c-0.1-0.1-0.2-0.2-0.2-0.3c-0.1-0.1-0.1-0.3-0.1-0.5c0-0.2,0-0.4,0-0.7c0-0.3,0-0.6,0.1-0.8c0.1-0.2,0.2-0.4,0.3-0.5
	c0.2-0.2,0.4-0.3,0.8-0.5c0.4-0.2,0.8-0.4,1.3-0.5c0.5-0.2,1.1-0.3,1.7-0.4c0.6-0.1,1.2-0.2,1.9-0.2c1.1,0,2.1,0.1,2.9,0.3
	c0.8,0.2,1.5,0.6,2,1c0.5,0.5,0.9,1.1,1.1,1.8c0.2,0.7,0.4,1.6,0.4,2.6V67.9z"/>
<path class="st1" d="M324.8,54.7c0,0.4,0,0.7,0,1c0,0.3-0.1,0.4-0.1,0.6c0,0.1-0.1,0.2-0.2,0.3c-0.1,0.1-0.2,0.1-0.3,0.1
	c-0.1,0-0.2,0-0.3-0.1c-0.1,0-0.2-0.1-0.4-0.1c-0.1,0-0.3-0.1-0.4-0.1c-0.2,0-0.3-0.1-0.5-0.1c-0.2,0-0.5,0-0.7,0.1
	c-0.2,0.1-0.5,0.2-0.7,0.4c-0.2,0.2-0.5,0.5-0.8,0.8c-0.3,0.3-0.5,0.7-0.9,1.2v9c0,0.1,0,0.2-0.1,0.3c-0.1,0.1-0.2,0.1-0.3,0.2
	c-0.2,0.1-0.4,0.1-0.6,0.1c-0.3,0-0.6,0-1,0c-0.4,0-0.7,0-1,0c-0.3,0-0.5-0.1-0.6-0.1c-0.2-0.1-0.3-0.1-0.3-0.2
	c-0.1-0.1-0.1-0.2-0.1-0.3V53.3c0-0.1,0-0.2,0.1-0.3c0.1-0.1,0.2-0.1,0.3-0.2c0.1-0.1,0.3-0.1,0.5-0.1c0.2,0,0.5,0,0.8,0
	c0.3,0,0.6,0,0.9,0c0.2,0,0.4,0.1,0.5,0.1c0.1,0.1,0.2,0.1,0.3,0.2c0.1,0.1,0.1,0.2,0.1,0.3v1.8c0.4-0.5,0.7-1,1.1-1.3
	c0.3-0.4,0.7-0.6,1-0.8c0.3-0.2,0.6-0.3,0.9-0.4s0.6-0.1,0.9-0.1c0.1,0,0.3,0,0.5,0c0.2,0,0.3,0,0.5,0.1c0.2,0,0.3,0.1,0.5,0.1
	s0.2,0.1,0.3,0.2c0.1,0.1,0.1,0.1,0.1,0.2c0,0.1,0.1,0.2,0.1,0.3c0,0.1,0,0.3,0,0.5C324.8,54,324.8,54.3,324.8,54.7"/>
<path class="st1" d="M335.4,59c0-1.1-0.2-2-0.7-2.7c-0.5-0.7-1.3-1-2.3-1c-0.5,0-1,0.1-1.4,0.3c-0.4,0.2-0.7,0.5-1,0.8
	c-0.3,0.3-0.4,0.7-0.6,1.2c-0.1,0.4-0.2,0.9-0.2,1.4H335.4z M339.3,60.1c0,0.5-0.1,0.9-0.3,1.1c-0.2,0.2-0.5,0.4-0.9,0.4h-8.8
	c0,0.6,0.1,1.2,0.2,1.7c0.1,0.5,0.4,0.9,0.7,1.3c0.3,0.4,0.7,0.6,1.2,0.8c0.5,0.2,1.1,0.3,1.8,0.3c0.7,0,1.3-0.1,1.9-0.2
	c0.5-0.1,1-0.2,1.4-0.3c0.4-0.1,0.7-0.2,1-0.3c0.3-0.1,0.5-0.2,0.6-0.2c0.1,0,0.2,0,0.2,0.1c0.1,0,0.1,0.1,0.2,0.2
	c0,0.1,0.1,0.2,0.1,0.4c0,0.2,0,0.4,0,0.7c0,0.2,0,0.4,0,0.6c0,0.2,0,0.3,0,0.4c0,0.1-0.1,0.2-0.1,0.3c0,0.1-0.1,0.2-0.2,0.2
	c-0.1,0.1-0.3,0.2-0.6,0.3c-0.3,0.1-0.7,0.3-1.2,0.4c-0.5,0.1-1,0.2-1.7,0.3c-0.6,0.1-1.3,0.1-2,0.1c-1.3,0-2.4-0.2-3.4-0.5
	c-1-0.3-1.8-0.8-2.4-1.5c-0.6-0.7-1.1-1.5-1.5-2.5c-0.3-1-0.5-2.2-0.5-3.5c0-1.3,0.2-2.5,0.5-3.5c0.3-1,0.8-1.9,1.5-2.6
	c0.6-0.7,1.4-1.3,2.3-1.6c0.9-0.4,1.9-0.6,3.1-0.6c1.2,0,2.2,0.2,3.1,0.5c0.9,0.4,1.6,0.9,2.1,1.5s1,1.4,1.2,2.3
	c0.3,0.9,0.4,1.8,0.4,2.8V60.1z"/>
<path class="st2" d="M59.2,68.3c-6.7,0-12.2-5.5-12.2-12.2s5.5-12.2,12.2-12.2s12.2,5.5,12.2,12.2S66,68.3,59.2,68.3 M51.5,25
	c-16.7,0-30.3,13.6-30.3,30.3s13.6,30.3,30.3,30.3s30.3-13.6,30.3-30.3S68.2,25,51.5,25"/>
<path class="st2" d="M59.2,46c-5.5,0-10,4.5-10,10.1c0,5.5,4.5,10.1,10,10.1c5.5,0,10-4.5,10-10.1C69.3,50.6,64.8,46,59.2,46"/>
</svg>
